<svg xmlns="http://www.w3.org/2000/svg" width="151.5" height="45" viewBox="0 0 151.5 45">
  <g id="Group_6" data-name="Group 6" transform="translate(-377.482 -266.953)">
    <path id="Exclusion_1" data-name="Exclusion 1" d="M35.25,44H8.749A8.759,8.759,0,0,1,0,35.25V8.749A8.759,8.759,0,0,1,8.749,0h26.5A8.759,8.759,0,0,1,44,8.749v26.5A8.76,8.76,0,0,1,35.25,44ZM25.385,27.077a1.693,1.693,0,0,0,0,3.385H28.77a8.463,8.463,0,0,0,0-16.925H25.385a1.692,1.692,0,0,0,0,3.385H28.77A5.083,5.083,0,0,1,33.844,22a5.076,5.076,0,0,1-5.074,5.074ZM15.228,13.537a8.463,8.463,0,0,0,0,16.925h3.387a1.693,1.693,0,0,0,0-3.385H15.228a5.078,5.078,0,0,1,0-10.155h3.387a1.692,1.692,0,0,0,0-3.385Zm0,6.77a1.693,1.693,0,0,0,0,3.385H28.77a1.693,1.693,0,0,0,0-3.385Z" transform="translate(377.982 267.453)" fill="#fff" stroke="rgba(0,0,0,0)" stroke-miterlimit="10" stroke-width="1"/>
    <g id="Group_5" data-name="Group 5" transform="translate(434.646 278.761)">
      <path id="Path_4" data-name="Path 4" d="M460.535,300.105a1.586,1.586,0,0,1,.5,1.212,1.551,1.551,0,0,1-.5,1.182,1.731,1.731,0,0,1-1.239.471h-9.266a1.7,1.7,0,0,1-1.738-1.739V284.753a1.654,1.654,0,0,1,.513-1.24,1.8,1.8,0,0,1,1.311-.5,1.689,1.689,0,0,1,1.225.5,1.656,1.656,0,0,1,.516,1.24v14.883h7.44A1.736,1.736,0,0,1,460.535,300.105Z" transform="translate(-448.291 -281.874)" fill="#fff"/>
      <path id="Path_5" data-name="Path 5" d="M469.014,285.38a1.337,1.337,0,0,1-.4-1.112v-.541a1.292,1.292,0,0,1,.427-1.112,3.208,3.208,0,0,1,2.765,0,1.339,1.339,0,0,1,.4,1.112v.541a1.306,1.306,0,0,1-.413,1.125,2.489,2.489,0,0,1-1.41.3A2.257,2.257,0,0,1,469.014,285.38Zm2.622,16.921a1.753,1.753,0,0,1-2.45,0,1.7,1.7,0,0,1-.485-1.24V289.287a1.705,1.705,0,0,1,.485-1.241,1.753,1.753,0,0,1,2.45,0,1.7,1.7,0,0,1,.485,1.241v11.775A1.7,1.7,0,0,1,471.636,302.3Z" transform="translate(-453.163 -281.703)" fill="#fff"/>
      <path id="Path_6" data-name="Path 6" d="M490.014,290.551a8.77,8.77,0,0,1,1.112,4.775v7.3a1.713,1.713,0,0,1-.485,1.24,1.756,1.756,0,0,1-2.452,0,1.71,1.71,0,0,1-.485-1.24v-7.3a4.111,4.111,0,0,0-.655-2.465,2.606,2.606,0,0,0-2.253-.9,3.475,3.475,0,0,0-2.594.956,3.285,3.285,0,0,0-.942,2.408v7.3a1.7,1.7,0,0,1-.484,1.24,1.754,1.754,0,0,1-2.45,0,1.7,1.7,0,0,1-.485-1.24V290.851a1.706,1.706,0,0,1,.485-1.241,1.754,1.754,0,0,1,2.45,0,1.705,1.705,0,0,1,.484,1.241v.484a6.879,6.879,0,0,1,2.012-1.768,5.2,5.2,0,0,1,2.722-.741Q488.9,288.826,490.014,290.551Z" transform="translate(-455.374 -283.267)" fill="#fff"/>
      <path id="Path_7" data-name="Path 7" d="M513.5,300.9a1.529,1.529,0,0,1-.555,1.2,1.776,1.776,0,0,1-1.183.484,1.625,1.625,0,0,1-1.255-.57l-5.132-5.417-1.4,1.283v2.995a1.714,1.714,0,0,1-.485,1.24,1.757,1.757,0,0,1-2.453,0,1.711,1.711,0,0,1-.482-1.24V283.254a1.713,1.713,0,0,1,.482-1.241,1.757,1.757,0,0,1,2.453,0,1.715,1.715,0,0,1,.485,1.241V293.8l6.1-5.9a1.719,1.719,0,0,1,1.252-.542,1.524,1.524,0,0,1,1.128.527,1.575,1.575,0,0,1,.5,1.07,1.706,1.706,0,0,1-.685,1.283l-4.306,3.963,4.991,5.417A1.819,1.819,0,0,1,513.5,300.9Z" transform="translate(-460.821 -281.514)" fill="#fff"/>
      <path id="Path_8" data-name="Path 8" d="M519.837,301.143a1.626,1.626,0,0,1,1.569-1.512,1.612,1.612,0,0,1,1.141.542,5.987,5.987,0,0,0,1.782,1.312,5.3,5.3,0,0,0,2.236.426q2.224-.085,2.225-1.682a1.365,1.365,0,0,0-.756-1.255,10.663,10.663,0,0,0-2.352-.855,20.229,20.229,0,0,1-2.694-.913,4.734,4.734,0,0,1-1.8-1.383,3.828,3.828,0,0,1-.756-2.494,3.778,3.778,0,0,1,.785-2.381,5.152,5.152,0,0,1,2.053-1.568,6.636,6.636,0,0,1,2.694-.556,8.267,8.267,0,0,1,2.907.542,5.067,5.067,0,0,1,2.283,1.6,1.593,1.593,0,0,1,.369,1.026,1.328,1.328,0,0,1-.541,1.084,1.443,1.443,0,0,1-.912.313,1.388,1.388,0,0,1-1.028-.4,3.623,3.623,0,0,0-1.325-1,4.392,4.392,0,0,0-1.84-.369q-2.164,0-2.167,1.567a1.349,1.349,0,0,0,.4,1.013,2.724,2.724,0,0,0,1.013.6q.613.214,1.724.527a19,19,0,0,1,2.566.884,4.424,4.424,0,0,1,1.74,1.4,4.019,4.019,0,0,1,.712,2.482,3.8,3.8,0,0,1-.828,2.437,5.215,5.215,0,0,1-2.123,1.583,6.875,6.875,0,0,1-2.666.541,9.669,9.669,0,0,1-3.506-.627A5.832,5.832,0,0,1,520.094,302,1.382,1.382,0,0,1,519.837,301.143Z" transform="translate(-465.441 -283.267)" fill="#fff"/>
      <path id="Path_9" data-name="Path 9" d="M552.281,297.493a1.8,1.8,0,0,1-1.2.428h-9.409a4.308,4.308,0,0,0,1.568,2.637,4.386,4.386,0,0,0,2.766.954,6.156,6.156,0,0,0,1.825-.213,4.8,4.8,0,0,0,1.039-.456c.258-.161.432-.271.527-.328a2.192,2.192,0,0,1,.97-.256,1.4,1.4,0,0,1,1.028.428,1.373,1.373,0,0,1,.426,1,1.78,1.78,0,0,1-.8,1.4,6.807,6.807,0,0,1-2.139,1.112,8.837,8.837,0,0,1-6.884-.541,6.964,6.964,0,0,1-2.752-2.751,8.015,8.015,0,0,1-.969-3.949,8.756,8.756,0,0,1,1.026-4.3,7.277,7.277,0,0,1,2.71-2.837,7,7,0,0,1,3.592-.984,6.658,6.658,0,0,1,3.55,1.026,7.7,7.7,0,0,1,2.665,2.766,7.424,7.424,0,0,1,1,3.763A1.456,1.456,0,0,1,552.281,297.493Zm-10.575-2.423h7.468v-.2A2.95,2.95,0,0,0,548,292.817a3.7,3.7,0,0,0-2.394-.856A3.539,3.539,0,0,0,541.706,295.069Z" transform="translate(-469.863 -283.267)" fill="#fff"/>
      <path id="Path_10" data-name="Path 10" d="M568.79,300.584a1.521,1.521,0,0,1-.513,2.309,3.491,3.491,0,0,1-1.9.528,5.522,5.522,0,0,1-2.979-.756q-1.211-.755-1.211-3.207v-7.869h-1.313a1.56,1.56,0,0,1-1.6-1.6,1.467,1.467,0,0,1,.457-1.1,1.575,1.575,0,0,1,1.14-.442h1.313v-1.825a1.705,1.705,0,0,1,1.737-1.74,1.6,1.6,0,0,1,1.2.5,1.7,1.7,0,0,1,.485,1.24v1.825h2.025a1.559,1.559,0,0,1,1.6,1.6,1.468,1.468,0,0,1-.457,1.1,1.573,1.573,0,0,1-1.139.442h-2.025v7.726a1.092,1.092,0,0,0,.313.87,1.262,1.262,0,0,0,.856.271,2.457,2.457,0,0,0,.626-.114,1.714,1.714,0,0,1,.656-.142A.948.948,0,0,1,568.79,300.584Z" transform="translate(-474.896 -282.323)" fill="#fff"/>
    </g>
  </g>
</svg>
