<svg id="linkset-icon" xmlns="http://www.w3.org/2000/svg" width="14.971" height="8.319" viewBox="0 0 14.971 8.319">
  <path id="Path_1" data-name="Path 1" d="M392.458,293.077h-1.665a4.159,4.159,0,0,1,0-8.319h1.665a.832.832,0,0,1,0,1.664h-1.665a2.5,2.5,0,0,0,0,4.991h1.665a.832.832,0,0,1,0,1.664Z" transform="translate(-386.636 -284.758)" fill="#2c1dc4"/>
  <path id="Path_2" data-name="Path 2" d="M410.766,293.077H409.1a.832.832,0,0,1,0-1.664h1.664a2.5,2.5,0,0,0,0-4.991H409.1a.832.832,0,0,1,0-1.664h1.664a4.159,4.159,0,0,1,0,8.319Z" transform="translate(-399.953 -284.758)" fill="#2c1dc4"/>
  <path id="Path_3" data-name="Path 3" d="M402.775,295.076h-6.654a.832.832,0,0,1,0-1.664h6.654a.832.832,0,0,1,0,1.664Z" transform="translate(-391.962 -290.085)" fill="#2c1dc4"/>
</svg>
